<?xml version="1.0" standalone="no"?>
<!DOCTYPE svg PUBLIC "-//W3C//DTD SVG 20010904//EN"
 "http://www.w3.org/TR/2001/REC-SVG-20010904/DTD/svg10.dtd">
<svg version="1.0" xmlns="http://www.w3.org/2000/svg"
 width="439.000000pt" height="439.000000pt" viewBox="0 0 439.000000 439.000000"
 preserveAspectRatio="xMidYMid meet">
<metadata>
Created by potrace 1.11, written by Peter Selinger 2001-2013
</metadata>
<g transform="translate(0.000000,439.000000) scale(0.100000,-0.100000)"
fill="#000000" stroke="none">
<path d="M3042 4199 c-134 -16 -272 -58 -405 -126 -114 -59 -193 -117 -323
-239 -58 -54 -109 -100 -113 -102 -3 -1 -38 30 -77 70 -128 134 -239 212 -400
282 -175 77 -262 97 -449 101 -114 3 -182 0 -235 -10 -430 -84 -755 -342 -915
-729 -156 -378 -106 -811 134 -1133 76 -103 88 -117 192 -227 149 -157 189
-200 189 -206 0 -3 -21 -27 -47 -55 -70 -76 -94 -136 -94 -239 0 -63 5 -97 19
-129 39 -88 121 -155 222 -182 61 -16 55 -15 84 -15 21 0 26 -7 36 -52 19 -78
52 -137 107 -189 57 -54 125 -85 211 -95 l62 -7 0 -33 c0 -18 10 -59 22 -91
43 -115 172 -210 294 -215 50 -1 57 -9 69 -73 20 -111 133 -233 247 -266 66
-18 159 -13 222 14 l59 24 71 -47 c100 -67 143 -81 244 -81 71 0 93 4 139 26
113 56 171 148 175 280 l3 80 75 6 c195 16 309 142 314 344 l1 60 65 2 c97 3
122 10 186 51 87 56 117 116 122 242 3 52 9 98 15 101 5 4 42 7 81 8 58 1 83
7 133 31 194 95 244 336 113 539 l-41 64 49 51 c240 247 289 308 361 452 42
85 93 235 110 324 6 30 9 133 7 230 -4 197 -25 300 -90 443 -63 138 -193 318
-293 407 -104 91 -280 197 -408 245 -148 56 -376 83 -543 64z m307 -164 c295
-56 550 -222 703 -457 117 -181 158 -305 165 -503 3 -83 1 -176 -6 -229 -20
-144 -86 -303 -183 -434 -53 -71 -277 -302 -293 -302 -13 0 -199 188 -375 380
-18 19 -62 67 -99 105 -149 159 -324 347 -389 419 -26 28 -36 34 -50 27 -21
-11 -52 -40 -257 -236 -283 -269 -329 -302 -492 -350 -118 -35 -346 -24 -462
22 -71 28 -206 110 -236 143 -17 19 -17 21 0 47 10 16 190 199 400 408 705
703 805 794 934 859 163 82 311 115 486 111 66 -2 136 -7 154 -10z m-1919 -21
c201 -32 390 -136 572 -315 l89 -87 -357 -354 c-543 -537 -560 -554 -573 -587
-16 -36 -9 -47 82 -139 104 -107 287 -206 436 -238 77 -16 279 -18 369 -4 81
14 139 33 229 78 104 52 165 100 356 284 93 90 175 166 182 170 8 5 28 -9 56
-40 23 -26 113 -121 198 -211 86 -91 197 -208 246 -260 50 -53 126 -134 170
-181 45 -47 111 -116 147 -155 36 -38 85 -92 107 -120 136 -164 51 -372 -143
-352 -92 9 -79 -1 -437 351 -135 132 -257 247 -272 255 -58 31 -127 -38 -96
-96 8 -15 120 -135 250 -267 307 -313 343 -355 359 -410 24 -88 -16 -193 -85
-222 -46 -19 -138 -18 -178 2 -51 27 -68 42 -342 312 -143 142 -272 263 -287
271 -34 17 -68 5 -94 -34 -16 -24 -16 -29 -2 -59 9 -18 131 -149 271 -292 140
-142 266 -273 281 -291 32 -38 56 -103 56 -152 0 -42 -29 -109 -56 -132 -68
-58 -228 -47 -287 19 -14 15 -12 22 20 74 67 108 75 216 22 324 -55 116 -162
192 -283 201 l-64 6 -7 46 c-23 158 -150 274 -318 290 l-70 6 -14 60 c-7 32
-24 78 -38 100 -59 101 -183 172 -306 175 -11 0 -21 19 -33 67 -21 85 -70 161
-132 202 -60 39 -111 54 -194 54 -106 1 -149 -25 -334 -204 -87 -85 -162 -155
-166 -157 -10 -4 -271 268 -346 362 -278 348 -293 837 -39 1221 133 199 396
373 652 429 81 18 291 18 403 0z m-94 -1823 c55 -25 87 -71 92 -135 5 -73 -18
-103 -290 -372 -258 -254 -285 -274 -356 -255 -61 16 -88 37 -112 85 -24 50
-25 84 -5 132 17 41 507 538 545 553 39 15 81 12 126 -8z m393 -362 c49 -35
71 -80 71 -144 0 -55 -3 -58 -289 -343 -240 -239 -263 -257 -316 -256 -81 2
-152 71 -170 165 -9 44 49 115 293 362 l245 247 62 0 c53 0 68 -4 104 -31z
m398 -315 c15 -11 36 -32 46 -46 21 -29 33 -111 23 -153 -7 -28 -461 -496
-530 -546 -43 -32 -103 -38 -165 -16 -45 16 -91 74 -98 125 -11 81 2 99 285
384 146 147 273 269 281 272 38 11 132 -1 158 -20z m383 -348 c68 -45 102
-160 67 -224 -20 -35 -356 -372 -501 -502 l-59 -52 -64 5 c-48 4 -71 11 -99
32 -67 51 -94 158 -55 220 18 30 398 417 499 509 53 48 54 48 112 44 42 -3 70
-12 100 -32z m74 -556 c53 -80 59 -188 14 -246 -25 -31 -91 -63 -130 -64 -38
0 -127 35 -163 65 l-30 25 50 51 c119 124 209 209 220 209 7 0 24 -18 39 -40z"/>
</g>
</svg>
