<svg xmlns="http://www.w3.org/2000/svg" width="99.34" height="99.86" viewBox="0 0 99.34 99.86"><title>random_dots--large</title><circle cx="8" cy="62.41" r="1.06" style="fill:#000f3c;opacity:0.03"/><circle cx="25.78" cy="51.06" r="1.06" style="fill:#000f3c;opacity:0.05"/><circle cx="36.28" cy="74.87" r="1.06" style="fill:#003a03;opacity:0.07"/><circle cx="45.07" cy="72.55" r="1.06" style="fill:#000f3c;opacity:0.05"/><circle cx="10.7" cy="90.99" r="1.06" style="fill:#000f3c;opacity:0.05"/><circle cx="31.07" cy="96.4" r="1.06" style="fill:#003a03;opacity:0.07"/><circle cx="48.2" cy="53.75" r="1.06" style="fill:#000f3c;opacity:0.03"/><circle cx="1.06" cy="81.81" r="1.06" style="fill:#000f3c;opacity:0.05"/><circle cx="27.81" cy="62.87" r="1.06" style="fill:#000f3c;opacity:0.05"/><circle cx="22.35" cy="86.79" r="1.06" style="fill:#000f3c;opacity:0.03"/><circle cx="47.75" cy="88.9" r="1.06" style="fill:#000f3c;opacity:0.05"/><circle cx="40.39" cy="66.3" r="1.06" style="fill:#3a002b;opacity:0.07"/><circle cx="17.24" cy="69.82" r="1.67" style="fill:#3a002b;opacity:0.07"/><circle cx="18.42" cy="75.92" r="0.49" style="fill:#000f3c;opacity:0.05"/><circle cx="6.94" cy="75.43" r="0.49" style="fill:#000f3c;opacity:0.05"/><circle cx="8.49" cy="55.66" r="0.49" style="fill:#000f3c;opacity:0.05"/><circle cx="29.53" cy="54.81" r="0.49" style="fill:#000f3c;opacity:0.05"/><circle cx="43.53" cy="78.85" r="0.49" style="fill:#000f3c;opacity:0.05"/><circle cx="38.84" cy="90.99" r="0.49" style="fill:#000f3c;opacity:0.06"/><circle cx="49.26" cy="60.55" r="0.49" style="fill:#000f3c;opacity:0.05"/><circle cx="26.94" cy="88.9" r="0.49" style="fill:#000f3c;opacity:0.05"/><circle cx="30.02" cy="83.17" r="1.67" style="fill:#000f3c;opacity:0.05"/><circle cx="17.51" cy="57.59" r="1.67" style="fill:#000f3c;opacity:0.05"/><circle cx="7.62" cy="87.84" r="1.67" style="fill:#000f3c;opacity:0.06"/><circle cx="2.72" cy="70.69" r="1.67" style="fill:#000f3c;opacity:0.05"/><circle cx="39.02" cy="53.99" r="1.67" style="fill:#003a03;opacity:0.07"/><circle cx="16.75" cy="98.15" r="1.67" style="fill:#3a002b;opacity:0.07"/><circle cx="44.01" cy="95.78" r="1.67" style="fill:#000f3c;opacity:0.05"/><circle cx="11.75" cy="78.36" r="1.67" style="fill:#003a03;opacity:0.07"/><circle cx="3.78" cy="95.11" r="1.67" style="fill:#000f3c;opacity:0.05"/><circle cx="26.76" cy="74.87" r="1.67" style="fill:#000f3c;opacity:0.05"/><circle cx="3.3" cy="51.88" r="1.67" style="fill:#3a002b;opacity:0.07"/><circle cx="90.51" cy="38.76" r="1.06" style="fill:#000f3c;opacity:0.03"/><circle cx="72.73" cy="50.11" r="1.06" style="fill:#000f3c;opacity:0.05"/><circle cx="62.23" cy="26.3" r="1.06" style="fill:#003a03;opacity:0.07"/><circle cx="53.44" cy="28.62" r="1.06" style="fill:#000f3c;opacity:0.05"/><circle cx="83.42" cy="10.18" r="1.06" style="fill:#000f3c;opacity:0.05"/><circle cx="67.44" cy="10.18" r="1.06" style="fill:#003a03;opacity:0.07"/><circle cx="50.31" cy="47.42" r="1.06" style="fill:#000f3c;opacity:0.03"/><circle cx="97.45" cy="19.36" r="1.06" style="fill:#000f3c;opacity:0.05"/><circle cx="70.7" cy="31.09" r="1.06" style="fill:#000f3c;opacity:0.05"/><circle cx="76.17" cy="14.38" r="1.06" style="fill:#000f3c;opacity:0.03"/><circle cx="50.76" cy="12.27" r="1.06" style="fill:#000f3c;opacity:0.05"/><circle cx="58.12" cy="34.87" r="1.06" style="fill:#3a002b;opacity:0.07"/><circle cx="78.77" cy="35.57" r="1.67" style="fill:#3a002b;opacity:0.07"/><circle cx="80.09" cy="25.24" r="0.49" style="fill:#000f3c;opacity:0.05"/><circle cx="91.57" cy="25.73" r="0.49" style="fill:#000f3c;opacity:0.05"/><circle cx="90.02" cy="45.5" r="0.49" style="fill:#000f3c;opacity:0.05"/><circle cx="68.98" cy="46.36" r="0.49" style="fill:#000f3c;opacity:0.05"/><circle cx="54.98" cy="22.31" r="0.49" style="fill:#000f3c;opacity:0.05"/><circle cx="59.67" cy="10.18" r="0.49" style="fill:#000f3c;opacity:0.06"/><circle cx="54.01" cy="41.9" r="0.49" style="fill:#000f3c;opacity:0.05"/><circle cx="68.98" cy="14.38" r="0.49" style="fill:#000f3c;opacity:0.05"/><circle cx="63.28" cy="18.3" r="1.67" style="fill:#000f3c;opacity:0.05"/><circle cx="81" cy="43.57" r="1.67" style="fill:#000f3c;opacity:0.05"/><circle cx="90.89" cy="14.99" r="1.67" style="fill:#000f3c;opacity:0.06"/><circle cx="95.79" cy="30.47" r="1.67" style="fill:#000f3c;opacity:0.05"/><circle cx="59.49" cy="47.17" r="1.67" style="fill:#003a03;opacity:0.07"/><circle cx="81.76" cy="3.02" r="1.67" style="fill:#3a002b;opacity:0.07"/><circle cx="54.5" cy="5.38" r="1.67" style="fill:#000f3c;opacity:0.05"/><circle cx="85.93" cy="21.83" r="1.67" style="fill:#003a03;opacity:0.07"/><circle cx="93.06" cy="3.34" r="1.67" style="fill:#000f3c;opacity:0.05"/><circle cx="76.17" cy="19.36" r="1.67" style="fill:#000f3c;opacity:0.05"/><circle cx="95.21" cy="49.28" r="1.67" style="fill:#3a002b;opacity:0.07"/><circle cx="8.1" cy="12.41" r="1.06" style="fill:#000f3c;opacity:0.03"/><circle cx="25.89" cy="1.06" r="1.06" style="fill:#000f3c;opacity:0.05"/><circle cx="36.39" cy="24.87" r="1.06" style="fill:#003a03;opacity:0.07"/><circle cx="45.17" cy="22.55" r="1.06" style="fill:#000f3c;opacity:0.05"/><circle cx="10.8" cy="40.99" r="1.06" style="fill:#000f3c;opacity:0.05"/><circle cx="37" cy="46.77" r="1.06" style="fill:#003a03;opacity:0.07"/><circle cx="48.3" cy="3.75" r="1.06" style="fill:#000f3c;opacity:0.03"/><circle cx="1.16" cy="31.81" r="1.06" style="fill:#000f3c;opacity:0.05"/><circle cx="27.91" cy="12.87" r="1.06" style="fill:#000f3c;opacity:0.05"/><circle cx="22.45" cy="36.79" r="1.06" style="fill:#000f3c;opacity:0.03"/><circle cx="47.85" cy="38.9" r="1.06" style="fill:#000f3c;opacity:0.05"/><circle cx="40.49" cy="16.3" r="1.06" style="fill:#3a002b;opacity:0.07"/><circle cx="17.34" cy="17.04" r="1.67" style="fill:#3a002b;opacity:0.07"/><circle cx="18.52" cy="25.92" r="0.49" style="fill:#000f3c;opacity:0.05"/><circle cx="7.05" cy="25.43" r="0.49" style="fill:#000f3c;opacity:0.05"/><circle cx="8.59" cy="5.66" r="0.49" style="fill:#000f3c;opacity:0.05"/><circle cx="29.63" cy="4.81" r="0.49" style="fill:#000f3c;opacity:0.05"/><circle cx="43.63" cy="28.85" r="0.49" style="fill:#000f3c;opacity:0.05"/><circle cx="38.94" cy="40.99" r="0.49" style="fill:#000f3c;opacity:0.06"/><circle cx="46.7" cy="9.26" r="0.49" style="fill:#000f3c;opacity:0.05"/><circle cx="29.63" cy="39.95" r="0.49" style="fill:#000f3c;opacity:0.05"/><circle cx="35.33" cy="32.86" r="1.67" style="fill:#000f3c;opacity:0.05"/><circle cx="17.61" cy="7.59" r="1.67" style="fill:#000f3c;opacity:0.05"/><circle cx="7.72" cy="37.84" r="1.67" style="fill:#000f3c;opacity:0.06"/><circle cx="2.82" cy="20.69" r="1.67" style="fill:#000f3c;opacity:0.05"/><circle cx="39.13" cy="3.99" r="1.67" style="fill:#003a03;opacity:0.07"/><circle cx="16.86" cy="48.15" r="1.67" style="fill:#3a002b;opacity:0.07"/><circle cx="43.53" cy="43.44" r="1.67" style="fill:#000f3c;opacity:0.05"/><circle cx="13.52" cy="31.46" r="1.67" style="fill:#003a03;opacity:0.07"/><circle cx="3.88" cy="45.11" r="1.67" style="fill:#000f3c;opacity:0.05"/><circle cx="26.86" cy="24.87" r="1.67" style="fill:#000f3c;opacity:0.05"/><circle cx="3.4" cy="1.88" r="1.67" style="fill:#3a002b;opacity:0.07"/><circle cx="58.08" cy="62.45" r="1.06" style="fill:#000f3c;opacity:0.03"/><circle cx="75.87" cy="51.09" r="1.06" style="fill:#000f3c;opacity:0.05"/><circle cx="86.37" cy="74.91" r="1.06" style="fill:#003a03;opacity:0.07"/><circle cx="95.15" cy="72.59" r="1.06" style="fill:#000f3c;opacity:0.05"/><circle cx="60.78" cy="91.03" r="1.06" style="fill:#000f3c;opacity:0.05"/><circle cx="81.16" cy="96.44" r="1.06" style="fill:#003a03;opacity:0.07"/><circle cx="98.28" cy="53.79" r="1.06" style="fill:#000f3c;opacity:0.03"/><circle cx="51.14" cy="81.85" r="1.06" style="fill:#000f3c;opacity:0.05"/><circle cx="77.89" cy="62.91" r="1.06" style="fill:#000f3c;opacity:0.05"/><circle cx="66.76" cy="87.84" r="1.06" style="fill:#000f3c;opacity:0.03"/><circle cx="97.84" cy="88.94" r="1.06" style="fill:#000f3c;opacity:0.05"/><circle cx="90.47" cy="66.34" r="1.06" style="fill:#3a002b;opacity:0.07"/><circle cx="67.33" cy="69.86" r="1.67" style="fill:#3a002b;opacity:0.07"/><circle cx="71.6" cy="77.88" r="0.49" style="fill:#000f3c;opacity:0.05"/><circle cx="57.03" cy="75.47" r="0.49" style="fill:#000f3c;opacity:0.05"/><circle cx="58.57" cy="55.7" r="0.49" style="fill:#000f3c;opacity:0.05"/><circle cx="79.61" cy="54.84" r="0.49" style="fill:#000f3c;opacity:0.05"/><circle cx="93.61" cy="78.89" r="0.49" style="fill:#000f3c;opacity:0.05"/><circle cx="88.93" cy="91.03" r="0.49" style="fill:#000f3c;opacity:0.06"/><circle cx="91.6" cy="58.81" r="0.49" style="fill:#000f3c;opacity:0.05"/><circle cx="79.61" cy="86.83" r="0.49" style="fill:#000f3c;opacity:0.05"/><circle cx="80.1" cy="85.73" r="1.67" style="fill:#000f3c;opacity:0.05"/><circle cx="67.33" cy="60.93" r="1.67" style="fill:#000f3c;opacity:0.05"/><circle cx="57.7" cy="87.88" r="1.67" style="fill:#000f3c;opacity:0.06"/><circle cx="52.81" cy="70.73" r="1.67" style="fill:#000f3c;opacity:0.05"/><circle cx="64.95" cy="1.67" r="1.67" style="fill:#003a03;opacity:0.07"/><circle cx="66.84" cy="98.19" r="1.67" style="fill:#3a002b;opacity:0.07"/><circle cx="94.1" cy="95.82" r="1.67" style="fill:#000f3c;opacity:0.05"/><circle cx="63.5" cy="81.5" r="1.67" style="fill:#003a03;opacity:0.07"/><circle cx="42.35" cy="84.84" r="1.67" style="fill:#000f3c;opacity:0.05"/><circle cx="76.84" cy="74.91" r="1.67" style="fill:#000f3c;opacity:0.05"/><circle cx="53.52" cy="53.99" r="1.67" style="fill:#3a002b;opacity:0.07"/></svg>